HIERARCHY
ROOT Hips
{
  OFFSET -365.579 96.3027 377.394
  CHANNELS 6 Xposition Yposition Zposition Zrotation Xrotation Yrotation
  JOINT ToSpine
  {
    OFFSET -2.69724 7.43032 -0.144315
    CHANNELS 3 Zrotation Xrotation Yrotation
    JOINT Spine
    {
      OFFSET -0.0310711 10.7595 1.96963
      CHANNELS 3 Zrotation Xrotation Yrotation
      JOINT Spine1
      {
        OFFSET 19.9056 3.91189 0.764692
        CHANNELS 3 Zrotation Xrotation Yrotation
        JOINT Neck
        {
          OFFSET 25.9749 7.03908 -0.130764
          CHANNELS 3 Zrotation Xrotation Yrotation
          JOINT Head
          {
            OFFSET 9.52751 0.295786 -0.907742
            CHANNELS 3 Zrotation Xrotation Yrotation
            End Site
            {
              OFFSET 16.4037 0.713936 2.7358
            }
          }
        }
        JOINT LeftShoulder
        {
          OFFSET 17.7449 4.33886 11.7777
          CHANNELS 3 Zrotation Xrotation Yrotation
          JOINT LeftArm
          {
            OFFSET 0.911315 1.27913 9.80584
            CHANNELS 3 Zrotation Xrotation Yrotation
            JOINT LeftForeArm
            {
              OFFSET 28.6126 1.18197 -3.53199
              CHANNELS 3 Zrotation Xrotation Yrotation
              JOINT LeftHand
              {
                OFFSET 27.5088 0.0218783 0.327423
                CHANNELS 3 Zrotation Xrotation Yrotation
                End Site
                {
                  OFFSET 18.6038 -0.000155887 0.382096
                }
              }
            }
          }
        }
        JOINT RightShoulder
        {
          OFFSET 17.1009 2.89543 -12.2328
          CHANNELS 3 Zrotation Xrotation Yrotation
          JOINT RightArm
          {
            OFFSET 1.4228 0.178766 -10.211
            CHANNELS 3 Zrotation Xrotation Yrotation
            JOINT RightForeArm
            {
              OFFSET 28.733 1.87905 2.64907
              CHANNELS 3 Zrotation Xrotation Yrotation
              JOINT RightHand
              {
                OFFSET 27.4588 0.290562 -0.101845
                CHANNELS 3 Zrotation Xrotation Yrotation
                End Site
                {
                  OFFSET 17.8396 -0.255518 -0.000602873
                }
              }
            }
          }
        }
      }
    }
  }
  JOINT LeftUpLeg
  {
    OFFSET -5.61296 -2.22332 -10.2353
    CHANNELS 3 Zrotation Xrotation Yrotation
    JOINT LeftLeg
    {
      OFFSET 2.56703 -44.7417 -7.93097
      CHANNELS 3 Zrotation Xrotation Yrotation
      JOINT LeftFoot
      {
        OFFSET 3.16933 -46.5642 -3.96578
        CHANNELS 3 Zrotation Xrotation Yrotation
        JOINT LeftToeBase
        {
          OFFSET 0.346054 -6.02161 12.8035
          CHANNELS 3 Zrotation Xrotation Yrotation
          End Site
          {
            OFFSET 0.134235 -1.35082 5.13018
          }
        }
      }
    }
  }
  JOINT RightUpLeg
  {
    OFFSET -5.7928 -1.72406 10.6446
    CHANNELS 3 Zrotation Xrotation Yrotation
    JOINT RightLeg
    {
      OFFSET -2.57161 -44.7178 -7.85259
      CHANNELS 3 Zrotation Xrotation Yrotation
      JOINT RightFoot
      {
        OFFSET -3.10148 -46.5936 -4.03391
        CHANNELS 3 Zrotation Xrotation Yrotation
        JOINT RightToeBase
        {
          OFFSET -0.0828122 -6.13587 12.8035
          CHANNELS 3 Zrotation Xrotation Yrotation
          End Site
          {
            OFFSET -0.131328 -1.35082 5.13018
          }
        }
      }
    }
  }
}
MOTION
Frames:	20
Frame Time:	0.0333333
-54.4324 98.6717 53.3692 51.7127 44.4293 30.8057 -70.1915 0 88.8779 161.227 42.3609 -71.14 4.91122 22.794 -0.685769 -130.018 21.9055 166.426 -131.484 58.8872 169.153 -0.114788 -14.9132 -34.4243 -58.9291 -12.0769 -143.065 4.37617 5.06646 -23.497 3.07319 -0.07323 -1.0624 -1.00635 5.68431 32.7679 -90.0164 -15.2227 140.437 -8.27828 -11.7753 7.25284 15.7257 -0.0149878 -0.477002 -18.1711 -0.544528 87.771 -0.615127 40.5999 7.87795 8.59378 13.7198 -1.17917 -11.0405 -29.8424 7.03872 -18.0754 -2.86794 73.9704 2.28057 47.0323 1.79489 -7.00457 2.68756 0.992539 -0.29073 -2.05368 -0.753014 
-54.5264 97.4523 53.0712 49.4085 44.5355 32.7766 -70.1915 0 88.8779 161.941 40.3115 -71.4271 5.13176 22.204 -0.825996 -131.391 21.9646 166.42 -131.844 59.2513 170.926 -0.28001 -16.1543 -32.3403 -61.0095 -18.2069 -146.086 4.41938 6.55839 -21.476 2.76601 -0.165295 -4.73971 -1.07143 6.02754 32.7489 -90.6904 -8.34572 144.454 -9.22315 -7.66248 7.49896 15.1349 -0.00526441 -0.405423 -14.4217 -0.917024 88.1216 -0.884523 44.4622 7.60052 8.50552 13.3741 -1.15771 -11.2685 -29.5701 5.43727 -14.5094 -3.90616 74.3891 2.68101 51.1128 1.01256 -7.00392 2.51888 0.994191 -0.789701 -5.39667 -2.20031 
-54.5963 95.9793 52.7394 47.5555 44.5647 34.2615 -70.1915 0 88.8779 163.083 38.113 -72.5843 4.61281 22.0903 0.0203796 -131.956 22.6236 166.521 -131.344 60.1073 172.218 -0.551049 -18.1058 -30.4669 -66.8946 -18.8375 -150.244 3.04243 10.1694 -19.5705 1.28389 -0.0984154 -5.93011 -0.962997 6.46438 29.7744 -92.746 -7.61153 146.723 -9.18248 -7.56489 7.44375 15.3709 0.0696462 0.174251 -10.7339 -0.615322 89.5931 -1.36537 48.6046 6.58313 8.99579 14.0557 -1.27641 -12.6136 -32.323 4.29506 -10.9143 -4.75051 75.229 3.23881 55.5987 -0.0301544 -6.98721 2.20917 0.995045 -1.37136 -8.74862 -3.87009 
-54.6632 94.3574 52.4715 47.5884 44.7314 34.2477 -70.1915 0 88.8779 163.987 34.8664 -73.749 4.2539 22.2483 -0.509536 -131.891 22.5609 166.082 -129.796 60.0236 172.492 -0.541834 -18.8975 -28.4857 -78.1646 -10.4591 -157.096 -0.886014 21.8177 -15.4661 0.971169 -0.0783326 -6.00338 -0.928009 7.00194 27.9771 -94.575 -5.79065 149.122 -9.69394 -6.87463 6.87463 14.9159 0.0610964 0.123256 -8.116 0.243945 91.1922 -1.94105 53.1416 6.18759 9.7112 14.2579 -1.45048 -14.1325 -35.025 2.76043 -8.396 -4.80058 76.5163 3.94913 60.0492 -1.30606 -6.90103 2.15923 0.98348 -2.10756 -12.3162 -5.85741 
-54.8134 92.479 52.1638 47.5856 45.0263 34.1234 -70.1915 0 88.8779 164.562 32.1041 -74.4205 4.03292 22.0288 -1.21061 -131.481 22.5411 166.334 -130.062 60.4206 174.652 -0.436542 -19.0809 -26.8425 -89.9518 5.42102 -163.004 -7.77342 36.0739 -7.44074 2.93284 -0.201232 -5.66724 -0.898381 7.58673 26.3922 -97.0056 -5.80095 151.373 -10.0094 -7.58727 5.95957 14.8632 0.0104455 -0.280502 -5.39526 0.653321 92.4766 -2.44105 57.6955 7.25355 9.80364 13.8116 -1.46723 -16.2365 -37.3968 -0.824979 -5.75663 -5.76664 77.0818 5.32231 64.928 -2.01978 -7.06533 2.1622 1.0065 -2.99837 -15.9075 -8.12964 
-54.9293 90.6582 51.8549 47.9424 45.3055 33.8811 -70.1915 0 88.8779 165.701 29.6458 -75.7237 3.66385 22.3118 -0.623341 -130.514 22.8646 165.471 -127.176 60.6738 174.208 -0.579878 -20.1406 -26.5448 -97.2569 19.2774 -166.954 -15.7442 44.3996 3.9979 8.38075 -0.530848 -5.36357 -0.758987 7.76979 24.2124 -99.5094 -6.28993 152.825 -10.3586 -8.18748 4.60793 15.0411 -0.0650412 -0.878391 -3.16173 0.453281 92.3735 -3.31449 62.1452 7.59115 10.5136 15.2817 -1.66347 -18.5343 -41.9447 -1.07472 -3.68164 -6.73777 77.2004 7.13308 69.1761 -3.0434 -7.66157 2.65917 1.0878 -4.13062 -19.7892 -9.96511 
-54.8965 88.7967 51.5865 48.5433 44.9107 33.5 -70.1915 0 88.8779 166.541 27.5553 -76.8965 3.65101 22.716 -0.648904 -130.377 23.1749 165.658 -126.258 61.0513 175.009 -0.632876 -20.7987 -26.0242 -99.9911 24.931 -171.143 -17.4792 42.9429 10.2113 10.0534 -0.464912 -3.49547 -0.57238 8.1507 21.2641 -102.608 -9.61154 154.342 -10.5656 -8.06907 2.8049 13.518 0.0766473 0.313845 -0.764374 1.26893 92.6011 -4.3635 66.4111 8.70117 11.7477 16.1515 -1.99788 -21.1475 -45.6546 -2.92043 -1.50878 -6.97472 77.2629 9.60882 73.0796 -4.92417 -7.85453 2.90625 1.11493 -5.12247 -22.8477 -11.1843 
-55.0336 87.271 51.349 48.4795 44.3477 33.4753 -70.1915 0 88.8779 167.185 25.6513 -77.7127 3.45112 22.9332 -0.817574 -130.733 23.6371 166.606 -127.769 61.9807 177.739 -0.674373 -21.7003 -25.1139 -102.015 28.6014 -174.035 -14.2219 39.0572 9.7184 12.3357 -0.697984 -4.64608 -0.412576 8.41848 18.9747 -105.056 -12.0749 155.95 -10.6647 -6.26021 1.17897 14.1301 0.210206 1.41096 1.55984 1.52373 92.5679 -5.36986 69.6661 10.1933 12.0915 15.9987 -2.0817 -22.6572 -47.7321 -3.82934 0.708319 -7.4805 77.2934 12.5674 76.1018 -7.34909 -7.82006 2.3252 1.11183 -5.40898 -23.739 -11.3045 
-55.1793 86.0079 51.1519 47.9281 43.74 34.2158 -70.1915 0 88.8779 167.886 23.8641 -77.8692 3.09784 22.8936 -1.55117 -129.682 23.3992 165.737 -125.453 61.8297 177.801 -0.538172 -22.4004 -23.0204 -103.476 31.403 -176.094 -11.1357 33.2314 9.09598 12.1521 -0.572762 -3.59821 -0.342833 9.0192 17.6645 -106.99 -13.7549 157.474 -10.6118 -1.92432 0.0819461 14.9081 0.234248 1.50541 3.93877 1.57992 92.0675 -6.40954 72.2554 11.7239 12.4371 15.9356 -2.16823 -23.6594 -49.0799 -4.38926 2.72198 -8.1966 76.6808 15.9952 78.3109 -9.87242 -7.93715 2.76296 1.12739 -6.07245 -25.6401 -11.9419 
-55.1479 85.0808 51.0553 47.2985 43.0286 34.5269 -70.1915 0 88.8779 167.998 22.6525 -78.7428 3.23573 23.131 -1.28911 -129.431 23.597 166.304 -125.934 62.3001 179.504 -0.460505 -22.9026 -21.8248 -104.627 33.1977 -178.263 -8.75043 27.9297 8.65899 11.7132 -0.5648 -3.71803 -0.200817 9.93011 15.5689 -109.296 -15.3541 158.344 -10.1011 2.75418 -0.97738 13.3416 0.338396 2.67171 5.83255 1.66818 91.8801 -7.33856 73.9932 12.9456 12.8471 16.4493 -2.29301 -25.1121 -50.8573 -5.31266 4.62118 -8.37811 76.7325 19.3399 79.932 -12.8679 -7.79087 2.79026 1.10602 -6.40084 -26.5782 -12.1604 
-55.1359 84.5635 50.947 46.9437 42.1084 35.146 -70.1915 0 88.8779 168.326 20.9426 -79.034 2.88789 23.2868 -1.66115 -128.763 24.1912 168.422 -128.575 63.4334 -176.078 -0.228814 -23.0252 -19.7642 -105.491 35.2576 -179.584 -6.35801 23.4269 8.37125 10.2717 -0.587969 -4.71057 0.112644 10.2289 12.1718 -111.006 -20.4781 159.892 -8.92579 5.75891 -3.03038 13.5969 0.388957 3.05597 7.25537 1.91772 91.1485 -7.91421 75.0669 14.0282 13.5379 16.6781 -2.48324 -25.9036 -51.8337 -5.7557 5.74604 -8.19157 76.1251 21.1001 80.5786 -14.3222 -7.65397 2.95938 1.08527 -6.60823 -27.2186 -12.1418 
-55.0616 84.2276 50.6977 46.0055 41.4466 35.7825 -70.1915 0 88.8779 168.552 19.7992 -79.3691 2.629 23.2729 -1.75026 -127.898 24.1243 168.316 -128.022 63.5915 -175.043 -0.0798358 -23.1252 -18.4417 -106.026 36.1519 178.806 -5.08216 22.3206 8.31279 9.51831 -0.566208 -4.95257 0.289158 9.83662 10.3051 -112.446 -24.0615 161.988 -7.72172 8.03548 -5.38779 11.869 0.434406 4.04594 8.55955 1.64954 90.8304 -8.24411 75.776 14.9336 13.48 16.3853 -2.45522 -26.1331 -51.9458 -6.08556 6.9161 -8.80301 75.7019 23.2879 81.1842 -15.7786 -7.65485 3.13045 1.08458 -6.83474 -27.9236 -12.1017 
-54.9391 84.0525 50.4557 44.7782 40.3323 36.3086 -70.1915 0 88.8779 168.25 19.5326 -79.6177 2.69797 23.1755 -2.03646 -126.615 24.3952 169.357 -130.037 64.3897 -171.188 -0.043736 -23.1658 -18.1128 -106.727 36.5882 178.099 -4.08888 20.8484 8.23588 7.90078 -0.54434 -5.96391 0.584079 11.3348 7.59233 -113.98 -26.1978 161.237 -6.51911 11.9736 -5.37017 12.851 0.432014 3.66762 10.027 1.60704 90.7176 -8.37911 76.1449 15.5145 13.5143 16.3568 -2.46288 -26.6606 -52.5089 -6.46116 8.4864 -8.73925 75.8118 24.3199 81.4564 -16.5743 -7.5067 3.23119 1.06196 -6.93349 -28.299 -11.914 
-54.8584 83.9407 50.208 43.6695 39.4526 36.9158 -70.1915 0 88.8779 167.629 19.4257 -79.2364 3.13677 22.5416 -3.03301 -126.301 24.3456 170.885 -133.094 64.6684 -167.018 0.0569247 -22.4288 -17.754 -107.407 36.3449 177.906 -3.54598 17.534 8.0819 5.64386 -0.422795 -6.5486 0.848672 13.7659 6.07902 -115.464 -29.1137 160.47 -5.38639 13.2165 -5.44355 12.6975 0.449228 3.8818 11.2612 1.44207 90.55 -8.3894 76.3815 16.0052 13.4922 16.3211 -2.45556 -27.0222 -52.7449 -6.89198 9.71481 -8.81464 75.7825 24.9018 81.6129 -17.1309 -7.48898 3.08099 1.06024 -6.87786 -28.3399 -11.3943 
-54.7692 83.9818 49.9554 42.8017 38.8714 37.2439 -70.1915 0 88.8779 167.618 19.5915 -79.4486 3.68148 22.5821 -2.96935 -125.548 24.1835 170.018 -130.33 64.5247 -168.324 -0.0303765 -23.0562 -18.0757 -107.432 35.8285 177.411 -3.66153 15.7759 8.0119 6.07798 -0.515544 -7.63671 1.10171 13.066 3.73987 -115.92 -31.0434 161.426 -4.67615 15.6163 -5.47969 11.3163 0.438811 4.32197 11.9513 1.24319 90.6143 -8.21861 76.3315 16.1588 13.5166 16.3337 -2.45913 -27.3722 -53.1126 -7.13338 10.4929 -9.12358 75.7666 25.3497 81.6598 -17.1064 -7.44968 3.09021 1.05436 -6.90127 -28.3897 -11.4495 
-54.6599 84.1236 49.7135 41.8923 38.2504 37.3545 -70.1915 0 88.8779 167.238 19.8145 -79.7144 3.95147 22.4943 -3.13869 -124.772 24.0317 168.508 -127.706 64.5351 -169.668 0.0112094 -23.5572 -17.411 -107.109 36.5549 176.888 -2.97701 12.7998 7.9079 9.33815 -0.806465 -7.90362 0.965641 12.1559 4.42962 -115.428 -31.6821 163.911 -4.70289 16.0714 -5.48606 10.759 0.456841 4.78358 12.5054 1.12176 90.9221 -7.86989 76.0269 16.077 13.5409 16.3412 -2.46909 -27.2774 -53.118 -6.94144 11.3351 -9.11483 76.1783 25.1107 81.559 -16.635 -7.31267 3.08877 1.03406 -6.90668 -28.3409 -11.609 
-54.531 84.3073 49.4988 41.2126 37.8394 38.0614 -70.1915 0 88.8779 167.603 19.9561 -79.763 4.03364 22.6866 -2.66205 -124.733 24.7884 168.099 -124.719 65.0952 -171.056 -0.140266 -24.0002 -18.3337 -106.473 38.4129 175.738 -1.92469 13.8506 7.94427 10.3581 -0.910467 -8.08875 0.943779 12.588 4.82979 -115.871 -31.5336 164.338 -4.35222 18.4212 -5.52994 12.4749 0.337145 2.88309 12.9215 1.00855 90.622 -7.69486 75.8121 15.9204 13.559 16.3917 -2.47604 -27.3494 -53.3534 -6.79855 11.5819 -9.07549 75.9004 24.0134 81.2504 -15.5911 -7.26796 2.95408 1.02852 -6.86182 -28.1735 -11.6812 
-54.4311 84.606 49.2521 40.8858 37.7998 38.3184 -70.1915 0 88.8779 167.953 19.8086 -79.7864 3.88698 22.7309 -1.99021 -125.753 27.0145 169.793 -125.364 67.1735 -169.247 -0.317533 -24.2686 -19.5168 -106.211 39.5209 175.151 -1.05681 12.9356 7.91487 8.97134 -0.7472 -7.55969 1.00088 13.0619 4.57009 -116.506 -32.3381 164.06 -4.01295 17.8651 -5.5227 15.0316 0.335818 2.29263 12.6728 0.816014 90.6388 -7.36862 75.3569 15.5649 13.5342 16.3675 -2.46852 -27.3375 -53.5156 -6.58112 11.3312 -9.17086 75.862 22.7529 80.8512 -14.3267 -7.34779 2.9881 1.04001 -6.90666 -28.2567 -11.816 
-54.363 84.8844 49.0331 40.7404 37.6708 38.535 -70.1915 0 88.8779 168.175 19.7018 -79.6153 3.43188 22.8272 -1.90996 -127.629 28.3647 170.034 -121.736 67.6756 -173.156 -0.404132 -24.4975 -20.0034 -106.258 39.8895 175.352 -0.694719 11.9672 7.88574 7.51419 -0.641175 -7.74701 0.939586 13.2632 5.16165 -116.677 -33.5458 163.934 -3.72635 17.7618 -5.5234 14.3347 0.198891 1.29017 12.4606 0.80643 90.5732 -7.09212 74.9797 15.3362 13.4417 16.2156 -2.43787 -26.8591 -53.0409 -6.21337 11.0342 -9.05571 75.7758 21.4651 80.4124 -13.088 -7.34526 2.99827 1.03956 -6.91225 -28.2403 -11.8989 
-54.2859 85.2236 48.813 40.6254 37.5339 38.6605 -70.1915 0 88.8779 168.426 19.8407 -79.4974 2.83635 23.0908 -1.92115 -130.379 28.9222 170.388 -120.988 67.3849 -176.889 -0.47079 -25.088 -20.057 -106.171 40.6739 175.437 -0.212102 13.3033 7.92724 6.92077 -0.589384 -7.70895 0.787128 13.0302 6.32602 -115.729 -31.6567 163.449 -4.01034 21.9847 -5.61498 13.5682 0.213392 1.51663 12.1328 0.856476 90.5985 -6.81868 74.5006 14.9514 13.3804 16.2207 -2.42223 -26.8614 -53.0156 -6.2483 10.6635 -8.90557 75.7194 20.0179 79.8596 -11.7082 -7.45763 3.09095 1.05553 -6.92698 -28.2667 -11.9451 
